<?xml version="1.0" standalone="no"?>
<!DOCTYPE svg PUBLIC "-//W3C//DTD SVG 20010904//EN"
 "http://www.w3.org/TR/2001/REC-SVG-20010904/DTD/svg10.dtd">
<svg version="1.0" xmlns="http://www.w3.org/2000/svg"
 width="650.000000pt" height="610.000000pt" viewBox="0 0 650.000000 610.000000"
 preserveAspectRatio="xMidYMid meet">
<metadata>
Created by potrace 1.15, written by Peter Selinger 2001-2017
</metadata>
<g transform="translate(0.000000,610.000000) scale(0.100000,-0.100000)"
fill="#000000" stroke="none">
<path d="M0 3050 l0 -3050 3250 0 3250 0 0 3050 0 3050 -3250 0 -3250 0 0
-3050z m6200 495 l0 -2255 -1079 0 -1080 0 -27 -35 -26 -35 -738 0 -738 0 -26
35 -27 35 -1080 0 -1079 0 0 2255 0 2255 2950 0 2950 0 0 -2255z m-2381 -2601
c0 -87 3 -119 13 -125 11 -7 10 -11 -2 -19 -21 -14 -50 -12 -50 2 0 9 -3 9
-12 0 -17 -17 -64 -15 -82 4 -55 55 -13 161 60 152 33 -4 34 -3 34 34 0 24 -5
38 -12 38 -17 1 22 30 39 30 9 0 12 -29 12 -116z m-2480 74 c0 -30 -1 -31 -9
-10 -8 19 -17 22 -60 22 l-50 0 0 -50 0 -50 40 0 c33 0 42 4 50 23 7 18 9 12
9 -28 1 -48 0 -49 -15 -27 -11 15 -25 22 -50 22 l-34 0 0 -61 0 -62 52 5 c38
4 57 12 70 28 20 25 22 22 8 -14 -9 -26 -11 -26 -107 -26 -72 1 -93 3 -80 11
14 9 17 26 17 120 0 104 -1 110 -22 119 -16 6 8 9 80 9 l102 1 -1 -32z m1309
21 c-13 -7 -18 -23 -18 -59 l0 -50 55 0 55 0 0 50 c0 36 -5 52 -17 59 -14 8
-3 10 42 10 50 0 56 -2 38 -11 -22 -10 -23 -17 -23 -118 0 -101 1 -108 23
-118 18 -9 12 -11 -38 -11 -45 0 -56 2 -42 10 13 8 17 23 17 64 l0 55 -55 0
-55 0 0 -55 c0 -41 4 -56 18 -64 13 -8 2 -10 -43 -10 -50 0 -56 2 -37 11 21
10 22 17 22 118 0 101 -1 108 -22 118 -19 9 -13 11 37 11 45 0 56 -2 43 -10z
m1607 -76 c21 -49 42 -92 46 -97 5 -5 29 34 53 87 l45 97 38 0 c31 -1 35 -3
21 -11 -15 -9 -18 -26 -18 -119 0 -93 3 -110 18 -119 13 -8 2 -10 -43 -10 -46
0 -55 2 -37 9 21 9 22 15 21 102 l0 93 -52 -104 -51 -103 -23 48 c-13 27 -34
74 -47 104 l-24 55 -1 -92 c-1 -78 2 -94 17 -102 13 -8 6 -10 -33 -10 -40 0
-45 2 -27 9 21 9 22 15 22 118 0 103 -1 110 -22 120 -21 10 -19 11 17 11 l41
1 39 -87z m-1297 -16 c7 -6 12 -34 12 -74 0 -54 3 -64 15 -59 25 9 17 -10 -10
-22 -15 -7 -27 -8 -30 -2 -3 5 -26 7 -50 3 -41 -5 -44 -4 -51 21 -8 31 12 58
57 77 22 8 29 18 27 33 -4 29 -38 34 -45 7 -7 -27 -33 -28 -33 -1 0 33 72 45
108 17z m570 -7 c4 0 15 7 25 14 24 19 57 9 68 -21 5 -13 9 -48 9 -78 0 -33 5
-55 13 -58 6 -3 -10 -5 -38 -5 -27 0 -42 2 -32 5 24 6 25 130 1 140 -33 12
-49 -11 -52 -75 -2 -51 0 -61 15 -65 10 -3 -4 -5 -32 -5 -27 0 -44 2 -37 5 8
3 12 28 12 74 0 48 -4 69 -12 70 -7 0 1 7 17 14 25 11 30 11 33 -1 2 -8 7 -14
10 -14z m472 -8 c68 -86 -54 -197 -127 -116 -39 43 -24 116 28 138 40 17 75
10 99 -22z m-2252 16 c7 -7 12 -39 12 -75 0 -53 3 -63 18 -63 16 -1 16 -1 -1
-11 -10 -6 -30 -8 -45 -5 -15 3 -33 2 -41 -3 -21 -14 -51 -1 -57 26 -7 28 14
55 57 74 22 8 29 18 27 33 -4 29 -38 34 -45 7 -3 -12 -12 -21 -19 -21 -17 0
-19 37 -1 43 24 10 83 7 95 -5z m112 -5 c0 -15 1 -15 18 0 25 23 69 22 82 -2
5 -11 10 -47 10 -80 0 -38 4 -61 13 -64 6 -3 -10 -6 -37 -6 -43 -1 -47 1 -32
12 25 18 20 130 -7 135 -33 7 -47 -17 -47 -78 0 -47 3 -59 18 -63 9 -3 -5 -5
-33 -5 -27 0 -44 2 -37 5 17 7 17 143 0 143 -20 0 14 20 35 20 9 0 17 -7 17
-17z m399 -9 c25 -31 27 -64 6 -103 -16 -33 -33 -41 -80 -41 -48 0 -79 41 -72
95 7 50 36 75 87 75 30 0 43 -6 59 -26z m2658 0 c22 -22 25 -32 20 -67 -7 -51
-36 -77 -87 -77 -50 0 -75 28 -75 87 0 35 5 49 24 64 34 28 86 25 118 -7z
m291 14 c7 -7 12 -39 12 -74 0 -51 3 -63 18 -67 12 -3 9 -6 -12 -12 -18 -5
-31 -4 -35 3 -4 7 -12 8 -21 2 -8 -6 -27 -10 -42 -10 -21 0 -29 6 -34 25 -7
30 13 57 57 75 20 9 29 19 29 36 0 31 -39 34 -47 4 -6 -21 -27 -27 -38 -11
-18 31 85 57 113 29z"/>
<path d="M310 3545 l0 -2245 1084 0 c713 0 1087 3 1091 10 4 7 -357 10 -1074
10 l-1081 0 0 251 c0 209 2 253 15 265 19 19 19 33 0 40 -13 5 -15 91 -15 683
l0 677 30 17 c17 10 30 16 30 13 0 -3 9 1 19 10 18 16 155 74 176 74 6 1 28 9
50 20 22 11 45 19 51 20 6 0 38 12 70 26 33 15 75 30 94 35 82 18 112 28 135
43 23 15 64 89 80 146 14 48 57 109 91 131 41 25 64 19 64 -15 0 -30 14 -40
37 -27 14 7 22 3 40 -22 29 -39 29 -42 -5 -82 -54 -66 -69 -99 -58 -126 6 -13
17 -30 24 -38 7 -7 16 -26 19 -42 4 -19 12 -29 23 -29 10 0 20 -6 22 -12 4
-10 19 -10 75 -1 74 13 176 52 155 60 -6 3 -10 8 -7 13 3 5 -2 16 -11 25 -21
21 -9 33 17 16 45 -27 146 -24 299 10 159 35 239 44 306 34 55 -8 56 -18 2
-31 -46 -10 -64 -34 -26 -35 l23 0 -22 -9 c-29 -12 -31 -34 -2 -25 12 4 33 17
47 29 80 66 102 91 121 136 15 34 29 52 45 56 28 7 76 73 95 131 8 23 25 52
37 64 13 13 24 30 24 38 0 9 11 40 25 69 14 30 25 61 25 69 0 31 47 113 64
113 3 0 15 -9 26 -20 12 -12 24 -18 29 -16 5 3 25 7 45 10 41 5 40 6 51 -104
8 -85 25 -122 80 -177 40 -39 49 -44 68 -36 19 9 29 3 74 -43 28 -29 60 -54
70 -56 11 -2 19 -14 21 -31 5 -40 42 -31 69 17 5 9 34 16 78 19 l69 5 -24 -19
c-20 -15 -22 -19 -8 -19 10 0 25 11 33 24 9 13 28 29 43 35 40 15 117 24 142
16 19 -6 21 -12 15 -45 -4 -23 -2 -41 4 -45 8 -4 8 -12 0 -27 -11 -20 -9 -21
20 -15 38 8 39 -3 5 -49 -21 -27 -24 -37 -14 -48 9 -12 7 -18 -9 -32 -11 -10
-17 -22 -14 -27 3 -6 -2 -16 -11 -23 -23 -16 -14 -47 20 -65 25 -13 26 -16 20
-73 -3 -33 -10 -64 -14 -68 -8 -8 -2 -62 17 -152 10 -44 9 -52 -8 -70 -22 -25
-17 -46 10 -46 12 0 19 7 19 20 0 13 7 20 20 20 13 0 20 -7 20 -20 0 -11 -5
-20 -11 -20 -5 0 -7 -5 -4 -10 6 -10 -25 -59 -67 -104 -23 -25 -23 -36 0 -36
70 0 -46 -49 -153 -64 -28 -4 -94 -19 -148 -33 -60 -15 -127 -25 -170 -25 -66
0 -115 -10 -127 -26 -8 -11 -90 -33 -139 -37 -64 -6 -71 -21 -14 -29 77 -12
101 -9 298 35 50 11 119 26 155 34 230 52 384 76 406 66 37 -16 31 -41 -10
-41 -32 0 -255 -39 -341 -60 -40 -10 -154 -31 -300 -55 -44 -7 -81 -13 -83
-14 -5 -2 33 -56 46 -66 9 -8 38 -7 95 2 145 23 251 41 294 52 24 6 71 16 105
21 35 5 97 16 138 24 102 20 103 20 122 -19 17 -34 17 -35 -4 -55 l-22 -20 34
0 34 0 -34 -25 c-32 -23 -60 -32 -60 -19 0 3 4 14 10 24 7 14 6 20 -7 25 -15
5 -15 7 -3 15 13 8 12 10 -2 10 -29 0 -21 18 10 23 15 2 5 2 -23 0 -27 -2 -52
-8 -55 -12 -3 -5 -34 -11 -70 -14 -36 -3 -114 -15 -175 -27 -60 -11 -142 -26
-182 -32 -69 -12 -71 -13 -82 -48 -6 -19 -8 -46 -4 -58 3 -13 -2 -40 -12 -63
-10 -21 -16 -40 -14 -42 2 -1 13 -7 24 -13 17 -9 20 -23 23 -82 2 -65 1 -72
-20 -84 -13 -6 -43 -15 -68 -18 -33 -4 -46 -10 -48 -24 -4 -17 0 -18 34 -13
26 4 34 3 24 -3 -10 -6 5 -8 44 -4 32 3 69 12 82 21 22 14 24 14 30 0 4 -12
14 -15 37 -11 61 11 155 45 160 58 8 20 -13 36 -44 36 -15 0 -40 5 -56 11
l-28 12 35 8 c19 4 43 6 52 3 9 -3 54 2 99 11 60 11 85 12 95 4 7 -6 17 -8 23
-5 5 4 18 -5 29 -18 13 -18 25 -23 41 -19 11 3 21 9 21 14 0 5 18 6 40 3 33
-5 43 -3 55 12 13 18 14 18 27 1 8 -11 25 -18 39 -18 13 1 41 2 62 3 22 1 37
7 37 14 0 16 -25 25 -37 13 -11 -11 -43 -2 -43 12 0 6 12 8 28 7 30 -3 28 -15
19 122 -3 36 -5 73 -6 83 -1 9 -8 17 -16 17 -9 0 -12 6 -9 15 5 11 -1 15 -21
15 -39 0 -26 23 21 35 21 6 44 13 49 16 6 4 55 14 110 23 55 10 116 21 135 26
19 4 81 5 137 1 91 -5 104 -9 124 -30 l23 -24 -37 6 c-57 9 -36 -10 58 -54 45
-21 103 -58 130 -84 27 -25 54 -45 61 -45 6 0 17 -6 24 -14 6 -8 20 -16 30
-18 21 -3 178 -137 179 -153 1 -5 13 -21 27 -34 30 -29 74 -119 74 -152 0 -45
-22 -80 -47 -76 -14 3 -23 -1 -23 -9 0 -21 -51 -55 -72 -48 -15 4 -22 -1 -31
-25 -9 -26 -17 -31 -43 -31 -38 0 -64 -9 -64 -21 0 -13 88 -11 113 3 12 6 42
10 67 9 58 -2 140 19 140 36 0 16 12 17 27 2 13 -13 47 -4 39 10 -3 5 1 14 8
20 10 9 16 9 21 1 5 -8 11 -8 20 0 10 8 19 8 34 0 25 -13 28 -32 5 -28 -10 2
-19 -3 -21 -10 -4 -10 10 -12 58 -10 50 2 64 7 67 20 3 17 -30 34 -60 29 -29
-4 -21 7 18 25 35 17 37 17 50 -1 7 -10 15 -22 16 -26 2 -5 13 -10 25 -12 12
-2 26 -6 29 -10 4 -4 12 -7 18 -7 18 1 -26 30 -44 30 -14 0 -16 7 -10 45 8 54
17 66 34 42 7 -9 20 -17 28 -17 15 0 53 68 43 78 -3 3 -5 0 -5 -6 0 -7 -9 -3
-21 9 -14 14 -28 19 -44 15 -18 -5 -24 -1 -29 19 -4 14 -13 25 -22 25 -8 0
-12 5 -9 11 4 6 -2 19 -14 30 -22 21 -41 25 -41 9 0 -17 -37 -11 -44 7 -5 12
-9 14 -18 5 -16 -16 -28 -15 -28 3 0 8 -9 20 -20 27 -11 7 -20 20 -20 29 0 9
-10 23 -22 31 -24 16 -17 38 13 38 12 0 23 -10 29 -25 5 -14 14 -25 20 -25 5
0 10 -12 10 -26 0 -23 3 -25 24 -20 15 4 26 1 29 -7 3 -9 9 -9 23 -1 27 16 24
57 -3 69 -26 11 -30 25 -8 25 18 0 19 12 3 28 -9 9 -5 12 18 12 41 0 75 -11
68 -21 -7 -11 20 -11 69 0 32 8 39 6 52 -12 8 -12 15 -16 15 -9 0 6 7 12 15
12 9 0 17 -14 21 -40 4 -22 11 -37 16 -34 5 3 7 12 4 20 -3 7 -1 16 5 19 5 4
12 -1 15 -9 8 -20 24 -21 24 -1 0 8 4 15 9 15 5 0 8 -11 6 -25 -2 -25 9 -34
20 -15 8 14 25 13 25 -1 0 -18 40 -48 56 -42 21 8 17 23 -6 23 -11 0 -20 5
-20 10 0 18 32 11 79 -18 3 -1 -4 -9 -15 -17 -17 -14 -16 -15 23 -10 43 5 67
-10 42 -26 -10 -6 -8 -10 11 -18 l25 -10 -25 -1 c-22 -1 -23 -2 -7 -11 13 -7
26 -7 47 3 l29 12 -27 11 c-14 6 -22 14 -16 18 6 3 23 -1 38 -9 16 -7 35 -14
42 -14 8 0 14 -4 14 -10 0 -5 9 -10 20 -10 11 0 20 -5 20 -11 0 -7 -10 -9 -25
-5 -22 6 -25 3 -25 -23 0 -20 6 -32 19 -36 11 -3 22 -12 25 -20 7 -20 42 -19
50 0 3 8 1 15 -4 15 -6 0 -10 7 -10 17 0 15 -1 15 -18 0 -19 -18 -32 -14 -32
10 0 7 7 13 15 13 8 0 15 5 15 10 0 17 26 11 45 -10 11 -12 13 -20 6 -20 -7 0
-10 -4 -7 -8 7 -12 95 -7 131 8 17 6 47 14 68 17 l37 6 0 -51 c0 -51 0 -51
-25 -42 -19 7 -25 6 -25 -5 0 -16 34 -38 44 -28 3 3 6 -12 6 -34 0 -29 -4 -40
-15 -40 -9 0 -15 10 -15 24 0 21 -4 23 -50 20 -40 -2 -50 -6 -50 -19 0 -10 -5
-18 -11 -18 -6 0 -9 9 -6 20 3 11 0 21 -6 21 -34 5 -54 4 -69 -4 -10 -4 -18
-4 -18 0 0 12 -154 3 -161 -9 -3 -5 -18 -6 -32 -2 -21 5 -27 2 -27 -10 0 -9 7
-16 15 -16 21 0 19 -14 -6 -36 -12 -10 -28 -32 -36 -49 -10 -23 -13 -25 -11
-8 2 12 -1 23 -7 25 -5 2 -11 -12 -13 -29 -2 -18 -7 -33 -13 -33 -5 0 -9 5 -9
10 0 6 -12 10 -27 9 -21 0 -24 -2 -11 -7 15 -6 13 -9 -12 -20 -21 -9 -30 -21
-30 -36 0 -13 -3 -26 -7 -29 -10 -10 -32 13 -27 28 13 33 -116 66 -129 33 -4
-10 -8 -9 -16 2 -8 12 -6 16 12 20 28 7 48 57 27 70 -25 16 -29 11 -23 -24 4
-29 2 -34 -18 -39 -35 -10 -38 -9 -32 13 5 18 -38 70 -58 70 -14 0 -10 -16 6
-30 22 -18 20 -60 -4 -60 -10 0 -24 7 -31 15 -18 21 -56 19 -73 -5 -17 -25
-73 -24 -91 1 -10 14 -25 17 -81 14 -39 -2 -73 -4 -77 -4 -5 -1 -8 -7 -8 -13
0 -8 -14 -14 -32 -14 -18 -1 -103 -4 -188 -7 -187 -6 -170 -4 -170 -22 0 -8
-5 -25 -11 -39 -10 -22 -14 -23 -26 -10 -8 8 -19 14 -24 14 -17 0 -9 -22 19
-50 l28 -28 -29 -17 c-26 -15 -27 -19 -13 -27 9 -5 14 -14 10 -19 -4 -7 5 -10
22 -8 16 1 38 1 48 1 19 -2 19 -2 1 -15 -32 -24 -9 -36 62 -32 53 2 73 -1 93
-15 28 -20 97 -21 109 -2 4 7 12 8 21 2 10 -6 21 -3 36 11 17 16 21 28 17 59
l-5 38 46 -2 c25 0 46 -4 46 -7 0 -4 -18 -25 -40 -48 -22 -22 -45 -59 -52 -81
l-13 -40 -77 0 c-66 0 -79 3 -88 19 -7 14 -6 21 3 24 7 4 6 6 -4 6 -20 1 -43
-24 -34 -39 4 -7 -99 -10 -330 -10 -222 0 -334 -3 -330 -10 4 -7 378 -10 1091
-10 l1084 0 0 2245 0 2245 -2940 0 -2940 0 0 -2245z m1970 1641 c19 -3 36 -10
38 -16 2 -6 8 -8 13 -4 5 3 12 -2 15 -10 3 -9 17 -16 30 -16 13 0 24 -4 24 -8
0 -4 17 -14 38 -21 46 -17 64 -30 55 -44 -4 -6 4 -8 21 -3 17 4 25 3 22 -3 -6
-10 11 -26 29 -26 6 0 11 -12 13 -26 2 -21 7 -26 23 -22 13 4 19 0 19 -10 0
-8 5 -17 11 -19 35 -12 219 -402 219 -463 0 -8 1 -15 3 -15 1 0 17 -4 35 -9
28 -8 36 -6 58 14 25 23 25 24 8 50 -9 14 -14 28 -10 32 3 3 1 12 -6 20 -18
22 6 39 39 27 37 -13 73 -105 54 -136 -7 -11 -11 -21 -9 -23 2 -2 61 -6 132
-9 70 -2 131 -7 134 -10 16 -17 -26 -25 -153 -31 -266 -13 -637 -91 -1015
-214 -132 -44 -168 -51 -340 -71 -166 -20 -312 -80 -387 -157 -67 -70 -79 -35
-34 102 27 83 28 93 16 140 -32 130 -38 178 -32 283 7 127 33 206 104 315 43
67 155 187 173 187 5 0 15 6 22 13 7 7 33 25 58 40 25 15 60 42 78 61 20 21
50 38 80 46 26 6 58 16 72 21 29 11 241 28 285 24 17 -2 46 -6 65 -9z m2792
-1831 c17 -4 28 -15 30 -28 2 -12 9 -21 16 -19 21 4 12 -87 -9 -98 -21 -12
-45 -4 -53 15 -4 11 -13 12 -38 5 -51 -15 -60 5 -18 40 19 15 37 27 40 25 3
-1 14 1 25 6 16 6 14 8 -12 8 -17 1 -34 5 -38 10 -3 5 -19 12 -35 16 -17 4
-30 10 -30 15 0 11 83 29 90 19 3 -4 17 -10 32 -14z m332 -451 c4 -10 14 -14
26 -11 11 3 20 1 20 -4 0 -5 11 -11 25 -15 32 -8 32 -27 -1 -49 -28 -18 -54
-14 -54 10 0 8 -5 15 -11 15 -23 0 -49 -22 -49 -40 0 -11 -7 -21 -15 -21 -8
-1 -21 -2 -27 -3 -7 -1 -12 5 -10 13 5 24 -9 53 -24 47 -8 -3 -14 -1 -14 4 0
9 101 66 121 69 4 1 10 -6 13 -15z m-765 -228 c-14 -7 -48 -17 -74 -21 -27 -3
-58 -13 -69 -20 -13 -9 -53 -14 -110 -14 -125 -1 -121 -11 5 -13 l104 -2 -105
-6 -105 -6 85 -4 c75 -3 80 -4 40 -10 -35 -6 -22 -8 65 -10 l110 -4 -153 -5
c-84 -3 -181 -4 -215 -1 -54 4 -146 -2 -212 -16 -11 -2 -53 -8 -93 -14 -41 -5
-91 -14 -113 -20 -44 -12 -63 -6 -55 17 4 9 1 22 -5 29 -9 11 -8 14 7 14 17 0
17 1 -2 15 -29 22 -10 30 175 65 162 31 170 31 366 25 110 -3 222 -2 250 3 28
5 68 10 90 11 40 1 40 1 14 -13z m1451 -937 c6 -10 26 -21 45 -25 19 -3 32
-11 29 -16 -4 -5 -14 -8 -24 -5 -12 3 -26 -6 -40 -25 -13 -18 -27 -27 -37 -24
-11 5 -13 1 -7 -17 8 -25 24 -38 37 -30 4 3 24 2 43 -1 34 -7 34 -7 34 -61 0
-51 -10 -69 -25 -44 -4 6 -26 8 -54 5 -65 -7 -70 -1 -60 63 6 42 5 56 -6 68
-8 8 -18 20 -22 27 -6 11 -28 12 -103 7 -97 -8 -120 -6 -120 10 0 9 54 12 136
9 47 -2 65 15 38 34 -17 13 -17 14 0 31 14 15 22 16 42 6 29 -13 45 -14 43 -3
-3 16 2 20 21 15 11 -3 25 -14 30 -24z m-1120 -84 c0 -14 4 -25 8 -25 5 0 14
11 20 25 8 17 20 25 37 25 29 0 45 -27 24 -41 -9 -6 1 -8 31 -7 25 2 55 -1 67
-5 18 -7 25 -3 39 25 l17 32 23 -29 c13 -17 24 -33 24 -38 0 -4 11 0 25 9 29
19 80 11 95 -14 5 -9 10 -12 10 -5 0 20 39 35 72 28 25 -6 29 -11 25 -31 -2
-13 0 -24 4 -24 5 0 9 -7 9 -15 0 -9 10 -15 26 -15 19 0 25 -5 22 -17 -5 -25
-38 -30 -38 -6 0 11 -3 14 -8 7 -20 -30 -112 -27 -112 4 0 13 -4 12 -22 -5
-19 -18 -34 -21 -93 -20 -58 2 -70 5 -73 20 -5 22 -17 22 -42 -3 -40 -40 -109
-14 -112 43 -1 26 -2 23 -7 -13 -10 -75 -50 -61 -51 18 0 13 -4 20 -10 17 -5
-3 -10 -24 -10 -46 0 -33 -3 -40 -17 -37 -15 3 -18 16 -20 78 -1 70 5 89 30
90 4 0 7 -11 7 -25z m-385 -43 c12 -28 19 -28 33 2 8 19 17 23 49 21 35 -2 38
-5 41 -36 4 -36 21 -64 23 -38 5 50 8 62 18 72 20 20 32 -7 29 -64 l-3 -54
-41 -3 c-52 -4 -74 16 -74 66 -1 37 -1 37 -20 -18 -11 -30 -20 -55 -20 -56 0
-12 -37 -34 -56 -34 -28 0 -31 17 -7 35 17 12 17 16 -1 64 -18 50 -15 75 7 68
7 -2 16 -13 22 -25z m326 7 c10 -16 12 -60 3 -83 -3 -8 -21 -18 -39 -22 -22
-4 -35 -13 -38 -26 -3 -11 -12 -18 -19 -16 -9 3 -14 30 -16 86 l-3 81 52 -3
c29 -2 55 -10 60 -17z m756 6 c18 -13 24 -13 52 1 39 20 79 11 91 -19 l9 -22
0 23 c1 25 -4 24 81 27 98 4 100 3 100 -60 0 -30 -5 -57 -12 -61 -16 -10 -40
27 -35 54 2 12 1 25 -3 27 -4 3 -10 -14 -13 -36 -6 -47 -11 -54 -32 -46 -10 4
-15 20 -15 47 0 42 -19 57 -22 18 0 -13 -2 -27 -3 -33 -2 -5 -3 -16 -4 -22 -2
-21 -32 -15 -38 7 l-6 21 -19 -21 c-22 -24 -55 -26 -85 -5 -19 13 -24 13 -50
-2 -37 -21 -80 -11 -95 22 -29 64 41 121 99 80z m-472 -125 c4 -6 52 -10 113
-9 59 0 119 -1 135 -4 15 -2 30 -1 33 4 2 5 18 6 34 2 17 -3 36 0 44 6 10 9
16 9 21 1 4 -6 34 -10 73 -9 37 1 84 1 105 1 20 -1 45 -1 55 0 9 0 61 0 115
-2 76 -2 97 -6 97 -17 0 -8 4 -12 9 -9 5 3 14 -1 21 -9 7 -8 37 -22 66 -31 44
-13 54 -19 54 -37 0 -21 -5 -22 -93 -24 -50 -2 -103 -6 -117 -9 -24 -5 -24 -6
-6 -20 17 -12 -2 -14 -160 -13 -98 1 -171 3 -161 6 24 6 21 20 -7 27 -15 4
-26 15 -28 28 -4 25 -28 37 -28 14 0 -9 -5 -16 -11 -16 -6 0 -8 7 -5 16 4 9
-4 28 -19 46 -16 19 -25 24 -25 14 0 -8 5 -18 10 -21 6 -3 10 -11 10 -16 0 -6
-4 -7 -10 -4 -5 3 -10 1 -10 -4 0 -14 -82 -4 -91 10 -3 6 -18 7 -34 3 -25 -6
-27 -5 -20 16 6 20 5 22 -23 15 -41 -9 -107 -69 -99 -89 4 -9 2 -16 -2 -16 -5
0 -12 8 -16 18 -6 16 -7 16 -19 0 -14 -18 -36 -24 -36 -10 0 5 -10 19 -22 32
-13 14 -23 29 -23 34 0 6 -18 14 -39 18 -49 10 -52 13 -36 33 8 10 30 15 61
15 26 0 51 5 54 10 8 13 22 13 30 0z m-182 -75 c11 -7 36 -17 58 -20 23 -4 39
-12 39 -20 0 -8 8 -18 18 -24 35 -20 -5 -36 -98 -39 -81 -4 -89 -2 -94 16 -7
20 5 49 33 85 17 20 20 21 44 2z"/>
<path d="M2310 3050 c-8 -5 -30 -10 -47 -10 -37 0 -41 -7 -15 -26 14 -11 15
-16 5 -33 -20 -32 -16 -55 20 -109 41 -65 147 -123 196 -107 37 11 51 93 30
169 -21 77 -138 149 -189 116z"/>
<path d="M2135 2766 c-62 -16 -117 -44 -220 -111 -44 -29 -91 -56 -105 -60
-14 -4 -44 -27 -68 -51 -23 -24 -46 -44 -51 -44 -23 0 -111 -64 -111 -81 0 -4
15 -10 33 -14 46 -9 89 -26 109 -43 9 -8 22 -11 27 -7 6 3 32 -8 57 -25 33
-22 50 -28 59 -20 17 14 73 -7 80 -31 4 -10 11 -19 18 -19 6 0 20 -9 31 -19
12 -10 41 -26 66 -34 l45 -15 8 51 c10 61 1 197 -13 211 -6 6 -10 34 -10 63 0
75 32 138 85 163 44 21 115 26 145 10 22 -12 112 -1 108 12 -6 18 -133 66
-188 71 -30 3 -77 0 -105 -7z"/>
<path d="M2640 1330 c0 -13 -5 -17 -14 -14 -23 9 -56 -15 -56 -39 0 -44 43
-62 74 -31 15 14 17 14 32 0 18 -18 40 -21 49 -6 3 6 -3 10 -14 10 -11 0 -22
4 -25 9 -6 10 53 18 97 13 37 -4 35 -22 -3 -22 -16 0 -30 -4 -30 -10 0 -14 54
-12 68 2 9 9 12 9 12 0 0 -7 5 -12 10 -12 6 0 10 16 10 35 0 19 5 35 10 35 6
0 10 -16 10 -35 0 -19 5 -35 10 -35 6 0 10 16 10 35 0 19 5 35 10 35 6 0 10
-13 10 -29 0 -17 5 -33 11 -36 7 -5 9 8 7 37 l-3 43 -45 0 c-39 0 -45 -3 -48
-23 -3 -16 -7 -20 -15 -14 -7 6 -21 12 -32 15 -15 4 -13 5 8 6 15 0 27 6 27
11 0 13 -53 13 -67 -1 -8 -8 -13 -8 -17 0 -10 16 -42 13 -60 -5 -15 -14 -16
-13 -16 15 0 17 -4 31 -10 31 -5 0 -10 -9 -10 -20z"/>
<path d="M3030 1319 c0 -28 -1 -29 -16 -15 -30 30 -74 13 -74 -29 0 -42 44
-59 74 -29 14 14 18 14 31 0 9 -9 31 -15 50 -14 33 1 35 3 36 37 l1 36 15 -37
c18 -45 30 -48 39 -12 l7 27 14 -27 c11 -20 21 -26 48 -26 19 0 35 5 35 10 0
7 6 7 18 1 24 -13 82 -11 82 3 0 6 5 5 12 -2 17 -17 44 -15 62 4 15 14 16 14
16 0 0 -30 19 -16 22 17 2 24 8 32 23 32 15 0 21 -8 23 -32 3 -33 22 -47 22
-17 0 14 1 14 16 0 18 -18 40 -21 49 -6 3 6 -3 10 -14 10 -11 0 -22 4 -25 9
-6 10 53 18 97 13 37 -4 35 -22 -3 -22 -16 0 -30 -4 -30 -10 0 -5 15 -10 34
-10 55 0 58 52 3 63 -18 4 -17 5 6 6 15 0 27 6 27 11 0 13 -53 13 -67 -1 -8
-8 -13 -8 -17 0 -10 16 -42 13 -60 -5 -15 -14 -17 -14 -32 0 -19 20 -34 20
-62 0 -12 -8 -22 -10 -22 -5 0 17 -49 25 -65 11 -8 -7 -15 -8 -15 -3 0 16 -68
14 -85 -3 -13 -14 -17 -14 -31 0 -18 18 -32 20 -54 6 -9 -6 -17 -5 -22 3 -5 8
-10 5 -14 -10 -8 -28 -21 -29 -29 -3 -3 11 -15 20 -26 20 -14 0 -19 -7 -19
-29 0 -21 -6 -32 -20 -36 -26 -8 -40 1 -40 26 0 14 7 19 25 19 14 0 25 5 25
10 0 6 -11 10 -25 10 -16 0 -25 6 -25 15 0 8 -4 15 -10 15 -5 0 -10 -14 -10
-31z"/>
</g>
</svg>
